# xmcd
#
# Track frame offsets:
#	150
#	14272
#	28720
#	40834
#	54768
#	68338
#	89958
#	101328
#	115580
#	133096
#	147028
#	161609
#	175398
#	193995
#	210512
#	223314
#	237160
#	251257
#	268154
#	283773
#	299878
#	313773
#	329294
#
# Disc length: 4606 seconds
#
# Revision: 0
# Processed by: cddbd v1.5.1PL2 Copyright (c) Steve Scherf et al.
# Submitted via: dBpowerAMP V4.0
#
DISCID=5f11fc17
DTITLE=Blandet  - Limedance
DYEAR=2006
DGENRE=
TTITLE0=Shang- A - Lang
TTITLE1=Think it over
TTITLE2=Come Dance whit me
TTITLE3=Who did you call Darlin
TTITLE4=Just want my baby back
TTITLE5=Lord of the dance
TTITLE6=Skiff Billie line dance
TTITLE7=Chasin´that neon rainbow
TTITLE8=Walk the dinosaur
TTITLE9=No more
TTITLE10=Lousiana
TTITLE11=Sweet sweet smile
TTITLE12=Live laugh love
TTITLE13=Redneck woman
TTITLE14=Love U2 much
TTITLE15=Red lips, blue eyes littl.
TTITLE16=Kiss me honey honey
TTITLE17=Sweet Nothings
TTITLE18=Dancing on a saturday night
TTITLE19=Vertical expression
TTITLE20=Chihuahua
TTITLE21=Wrapped around
TTITLE22=Billy´B bad
EXTD=linedance 1
EXTT0=
EXTT1=
EXTT2=
EXTT3=
EXTT4=
EXTT5=
EXTT6=
EXTT7=
EXTT8=
EXTT9=
EXTT10=
EXTT11=
EXTT12=
EXTT13=
EXTT14=
EXTT15=
EXTT16=
EXTT17=
EXTT18=
EXTT19=
EXTT20=
EXTT21=
EXTT22=
PLAYORDER=
